<svg width="144" height="30" viewBox="0 0 144 30" fill="none" xmlns="http://www.w3.org/2000/svg">
<rect x="0.912916" y="0.652174" width="142.174" height="28.6957" rx="6.12202" fill="white"/>
<path d="M11.0559 13.83L13.6673 18.45H15.102L17.656 13.873V20.7887H19.349V10.4295H17.7564L14.3703 16.3265L10.9842 10.4582H9.3916V20.7887H11.0559V13.83Z" fill="black"/>
<path d="M23.3006 20.9895C24.2475 20.9034 24.9362 20.3439 25.2519 19.8991L25.3093 20.803H26.8875L26.8445 16.0969C26.8445 15.15 26.2562 14.1313 25.051 13.6865C24.0754 13.3134 22.7697 13.4426 22.038 13.873C21.1915 14.3465 20.8615 14.9204 20.718 15.3652L22.1241 15.8817C22.4541 14.9634 23.3149 14.7195 24.2188 14.9491C25.2088 15.2074 25.2662 16.0252 25.1084 16.4843C24.3049 16.3552 23.4871 16.4413 22.7841 16.556C21.2632 16.8143 20.4167 17.6178 20.5171 19.0095C20.6462 20.3008 21.8228 21.133 23.3006 20.9895ZM23.8315 19.6695C22.8845 19.8847 22.1241 19.4256 22.1241 18.7369C22.1241 17.503 23.8602 17.7039 25.2806 17.8043C25.381 18.5217 24.8932 19.4113 23.8315 19.6695Z" fill="black"/>
<path d="M35.2292 10.3291L33.6366 10.3434L33.651 14.533C32.9192 13.5717 31.7858 13.4426 31.0684 13.5287C29.7914 13.6721 28.2275 14.6047 28.0553 16.9004C27.8545 19.5978 29.7914 21.0326 31.341 21.0326C32.3884 21.0326 33.1918 20.5734 33.6079 19.9708L33.6797 20.7887L35.2579 20.803L35.2292 10.3291ZM33.6223 17.2591C33.6223 18.1774 33.2205 19.44 31.6997 19.5117C30.5088 19.5547 29.6479 18.493 29.6479 17.2734C29.6479 15.9534 30.5518 14.9634 31.6423 14.9921C32.9336 15.0065 33.6223 15.9821 33.6223 17.2591Z" fill="black"/>
<path d="M36.2658 17.2304C36.2658 14.7339 37.9875 13.5 39.8958 13.5C41.7897 13.5 43.5688 14.7482 43.3536 17.6034L37.9014 17.6608C37.9014 18.2204 38.3605 19.5117 39.781 19.5834C40.8571 19.6265 41.4597 19.0956 41.7753 18.493L43.2675 18.9378C42.9088 19.813 41.7897 20.9465 39.9244 20.9465C37.6288 20.9465 36.2658 19.2821 36.2658 17.2304ZM37.9875 16.3839L41.6605 16.3695C41.6605 15.6952 40.9575 14.7626 39.6088 14.8774C38.7766 14.9491 38.0736 15.5804 37.9875 16.3839Z" fill="black"/>
<path d="M57.2594 13.7295H58.9094L56.6855 20.8174H55.0068L53.3855 15.7382L51.7929 20.803H50.1286L47.8186 13.7008H49.4686L51.0038 18.6652L52.6251 13.6578H54.232L55.8677 18.7226L57.2594 13.7295Z" fill="black"/>
<path d="M60.8676 12.3808C61.4558 12.3808 61.9293 11.936 61.9293 11.3334C61.9293 10.7308 61.4558 10.2717 60.8676 10.2717C60.265 10.2717 59.7771 10.7308 59.7771 11.3334C59.7771 11.936 60.265 12.3808 60.8676 12.3808ZM61.6997 13.6578H60.0354V20.8317H61.6997V13.6578Z" fill="black"/>
<path d="M67.6178 20.6595L67.1156 19.2821C66.8143 19.4687 66.1973 19.4974 65.8673 19.1243C65.6665 18.8947 65.6378 18.45 65.6378 17.46V15.15H67.3739V13.7152H65.6521V11.5917H64.1169V13.2847C64.1169 13.6004 64.0595 13.7152 63.6434 13.7152H62.7969V15.15H64.0308V18.6508C64.0308 19.4687 64.3752 20.5878 65.6521 20.8604C66.4986 21.0469 67.0582 20.8747 67.6178 20.6595Z" fill="black"/>
<path d="M68.7869 20.803H70.4799V16.7856C70.4799 15.566 71.3552 14.9491 72.1586 14.9491C72.9621 14.9491 73.5934 15.4082 73.5934 16.7856V20.803H75.3008V16.5274C75.3008 15.3652 74.9134 13.5287 72.5891 13.5287C71.5704 13.5287 70.6808 14.1313 70.4799 14.5474V10.3434L68.7725 10.3291L68.7869 20.803Z" fill="black"/>
<path d="M91.4266 17.8164C91.7019 17.4438 92.2139 17.2304 92.648 17.2397C92.8375 17.2457 93.0193 17.3177 93.1627 17.4438C93.3008 17.567 93.3789 17.7453 93.3766 17.9319C93.3848 18.4733 93.1352 19.0295 92.8489 19.527C92.5135 20.1032 92.1131 20.6379 91.656 21.1201C91.1403 21.6708 91.9616 22.5074 92.4819 21.9587C93.1016 21.3147 93.627 20.5836 94.0418 19.7879C94.3997 19.0723 94.7025 18.204 94.4621 17.399C94.2134 16.567 93.4224 16.0556 92.5846 16.0611C91.7202 16.0667 90.9329 16.527 90.4282 17.2229C90.2447 17.4792 90.386 17.8816 90.6365 18.0307C90.932 18.2068 91.2458 18.0764 91.4321 17.8192L91.4266 17.8164Z" fill="#E350CC"/>
<path d="M89.2511 15.3912C89.5873 15.0554 90.0074 14.819 90.466 14.7074C90.7881 14.6385 91.1194 14.6785 91.2634 15.0046C91.3791 15.2673 91.2708 15.6885 91.1341 16.0155C90.9427 16.4431 90.7041 16.8472 90.4229 17.2201C90.2394 17.4782 90.3798 17.8788 90.6312 18.0279C90.9258 18.203 91.2414 18.0745 91.4268 17.8164C92.1223 16.8484 92.9693 15.3242 92.1278 14.194C91.1643 12.899 89.375 13.6602 88.4289 14.5565C87.8783 15.0763 88.7042 15.9102 89.2548 15.395L89.2511 15.3912Z" fill="#E350CC"/>
<path d="M86.5184 12.9745C86.8599 12.6994 87.2507 12.494 87.6691 12.3699C87.8717 12.3052 88.0826 12.2713 88.295 12.2692C88.4591 12.265 88.6222 12.2967 88.773 12.3624C89.709 12.8282 88.9373 14.031 88.4289 14.5565C87.9031 15.0987 88.7244 15.9344 89.2548 15.395C89.81 14.823 90.2734 14.1074 90.3661 13.295C90.4531 12.5475 90.1089 11.8159 89.4815 11.4149C88.2803 10.6462 86.69 11.3357 85.699 12.1425C85.454 12.3428 85.4944 12.7695 85.699 12.981C85.9412 13.227 86.2762 13.1813 86.5249 12.981L86.5184 12.9745Z" fill="#E350CC"/>
<path d="M85.1777 17.8164C85.453 17.4438 85.9641 17.2304 86.3982 17.2397C86.5877 17.2457 86.7695 17.3177 86.913 17.4438C87.051 17.567 87.1291 17.7453 87.1268 17.9319C87.1359 18.4733 86.8863 19.0295 86.5991 19.527C86.264 20.1034 85.8637 20.6381 85.4062 21.1201C84.8896 21.6708 85.7109 22.5074 86.2321 21.9587C86.8521 21.3149 87.3775 20.5838 87.792 19.7879C88.1508 19.0723 88.4537 18.204 88.2132 17.399C87.9646 16.567 87.1736 16.0556 86.3348 16.0611C85.4704 16.0667 84.6831 16.527 84.1784 17.2229C83.9949 17.4792 84.1362 17.8816 84.3876 18.0307C84.6831 18.2068 84.996 18.0764 85.1832 17.8192L85.1777 17.8164Z" fill="#50E3C2"/>
<path d="M83.0045 15.3912C83.3408 15.0554 83.7608 14.819 84.2194 14.7074C84.5415 14.6385 84.8737 14.6785 85.0169 15.0046C85.1325 15.2673 85.0242 15.6885 84.8884 16.0155C84.6964 16.4429 84.4575 16.847 84.1763 17.2201C83.9928 17.4782 84.1332 17.8788 84.3855 18.0279C84.6792 18.203 84.9958 18.0745 85.1811 17.8164C85.8758 16.8484 86.7237 15.3242 85.8822 14.194C84.9178 12.899 83.1293 13.6602 82.1823 14.5565C81.6317 15.0763 82.4576 15.9102 83.0082 15.395L83.0045 15.3912Z" fill="#50E3C2"/>
<path d="M80.2722 12.9745C80.6139 12.6992 81.0051 12.4938 81.4239 12.3699C81.6261 12.3051 81.8367 12.2712 82.0488 12.2692C82.2129 12.2649 82.376 12.2967 82.5269 12.3624C83.4628 12.8282 82.692 14.031 82.1827 14.5565C81.6569 15.0987 82.4791 15.9344 83.0086 15.395C83.5638 14.823 84.0272 14.1074 84.1208 13.295C84.2065 12.5477 83.8625 11.8168 83.2362 11.4149C82.035 10.6462 80.4438 11.3357 79.4537 12.1425C79.2087 12.3428 79.2482 12.7695 79.4537 12.981C79.696 13.227 80.03 13.1813 80.2796 12.981L80.2722 12.9745Z" fill="#50E3C2"/>
<rect width="0.913857" height="2.02996" rx="0.456928" transform="matrix(0.898088 -0.439816 0.42911 0.903252 81.6177 7.16449)" fill="#FFCE1F"/>
<rect width="2.0351" height="0.911488" rx="0.455744" transform="matrix(0.139499 -0.990222 0.989619 0.143715 85.4128 8.60669)" fill="#FFCE1F"/>
<rect width="1.83726" height="0.918247" rx="0.459123" transform="matrix(0.703702 -0.710495 0.699723 0.714414 87.9111 9.31186)" fill="#FFCE1F"/>
<path fill-rule="evenodd" clip-rule="evenodd" d="M104.112 10.6965C104.618 10.6937 105.12 10.7908 105.589 10.9825C106.036 11.1615 106.426 11.463 106.715 11.8536C107.009 12.2617 107.161 12.7571 107.147 13.2623C107.147 13.9313 107.017 14.4238 106.756 14.74C106.479 15.0677 106.135 15.3295 105.747 15.5068C105.783 15.5254 105.971 15.6064 106.309 15.7509C106.648 15.8953 106.928 16.171 107.147 16.58C107.366 16.9891 107.477 17.4959 107.477 18.0996C107.489 18.6138 107.315 19.1147 106.989 19.5083C106.664 19.899 106.249 20.2029 105.781 20.3934C105.33 20.5875 104.846 20.6894 104.357 20.6934H100.473L100.487 10.6965H104.112ZM102.602 14.8648L104.291 14.8378C104.608 14.8355 104.912 14.7105 105.142 14.4884C105.399 14.2568 105.527 13.9083 105.526 13.4431C105.526 12.9599 105.366 12.6161 105.047 12.4117C104.726 12.2071 104.354 12.1007 103.975 12.1052H102.149L102.162 14.8788C102.346 14.8788 102.492 14.8751 102.602 14.8648ZM105.41 18.8245C105.164 19.0747 104.831 19.2153 104.483 19.2149C103.851 19.2149 103.087 19.2229 102.19 19.2391V16.3397L104.263 16.3257C104.739 16.3282 105.116 16.4524 105.396 16.6984C105.675 16.9444 105.815 17.2906 105.815 17.7372C105.814 18.2018 105.679 18.5642 105.41 18.8245Z" fill="black"/>
<path d="M109.797 20.6934L108.302 20.6832V13.8614H109.799V14.8788C109.896 14.6202 110.048 14.3868 110.246 14.1959C110.472 13.9965 110.736 13.8448 111.021 13.7496C111.593 13.5631 112.215 13.6133 112.752 13.8894L112.326 15.2692C112.123 15.1806 111.904 15.138 111.683 15.1443C111.418 15.1441 111.155 15.1937 110.908 15.2906C110.662 15.3824 110.442 15.5329 110.266 15.7294C110.116 15.8956 110.003 16.0931 109.936 16.308C109.866 16.5601 109.826 16.8202 109.82 17.0822C109.806 17.3884 109.799 17.895 109.799 18.6018L109.797 20.6934Z" fill="black"/>
<path fill-rule="evenodd" clip-rule="evenodd" d="M113.333 19.8708C113.542 20.1988 113.837 20.4616 114.184 20.6301V20.6273C114.984 21.0088 115.914 20.9882 116.698 20.5714C117.04 20.3936 117.338 20.1387 117.569 19.8261L117.624 20.7046H119.135L119.093 16.131C119.089 15.6353 118.934 15.1531 118.648 14.7512C118.334 14.3028 117.89 13.9661 117.378 13.7888C116.982 13.6416 116.563 13.5723 116.141 13.5848C115.836 13.5838 115.532 13.6188 115.235 13.6891C114.975 13.7459 114.725 13.8423 114.493 13.9751C113.844 14.3478 113.423 14.8313 113.23 15.4258L114.576 15.9279C114.673 15.6241 114.866 15.3618 115.127 15.1826C115.385 15.0169 115.686 14.932 115.992 14.9385C116.192 14.9395 116.39 14.9677 116.583 15.0223C116.903 15.1062 117.136 15.2481 117.283 15.4481C117.426 15.638 117.503 15.8706 117.502 16.1096C117.504 16.2476 117.481 16.3847 117.433 16.514C117.16 16.4752 116.884 16.4565 116.608 16.4581C116.138 16.4639 115.67 16.5059 115.207 16.5838C114.502 16.7006 113.962 16.94 113.587 17.3022C113.212 17.6643 113.024 18.1478 113.024 18.7528C113.017 19.148 113.124 19.5368 113.333 19.8708ZM117.607 17.9748C117.603 18.3423 117.473 18.6969 117.24 18.9782C116.977 19.3017 116.612 19.5219 116.206 19.6006C116.063 19.6386 115.915 19.6574 115.767 19.6565C115.459 19.6695 115.155 19.5733 114.908 19.3844C114.694 19.2227 114.569 18.9662 114.573 18.695C114.572 18.3235 114.716 18.068 115.005 17.9282C115.293 17.7885 115.698 17.7186 116.22 17.7186C116.449 17.7186 116.652 17.7232 116.831 17.7326C117.01 17.7419 117.154 17.7512 117.264 17.7605C117.373 17.7762 117.483 17.7855 117.593 17.7885C117.605 17.8498 117.609 17.9123 117.607 17.9748Z" fill="black"/>
<path d="M119.405 13.8195L121.149 13.8056L123.002 18.7136L124.897 13.8056L126.587 13.8195L123.689 20.7074H122.307L119.405 13.8195Z" fill="black"/>
<path fill-rule="evenodd" clip-rule="evenodd" d="M127.029 15.8941C127.586 14.5289 128.898 13.6387 130.354 13.6387C132.34 13.6387 133.951 15.2737 133.952 17.2909C133.952 18.7685 133.076 20.1009 131.731 20.6666C130.387 21.2323 128.839 20.92 127.81 19.8753C126.78 18.8306 126.472 17.2593 127.029 15.8941ZM128.151 17.2918C128.151 18.5268 129.137 19.5279 130.354 19.5279C131.57 19.5279 132.556 18.5268 132.556 17.2918C132.556 16.0569 131.57 15.0558 130.354 15.0558C129.137 15.0558 128.151 16.0569 128.151 17.2918Z" fill="black"/>
<rect x="0.912916" y="0.652174" width="142.174" height="28.6957" rx="6.12202" stroke="#D2D2D2" stroke-width="1.30435"/>
</svg>
