<svg width="40" height="40" viewBox="0 0 40 40" fill="none" xmlns="http://www.w3.org/2000/svg">
<path fill-rule="evenodd" clip-rule="evenodd" d="M20 38C29.9411 38 38 29.9411 38 20C38 10.0589 29.9411 2 20 2C10.0589 2 2 10.0589 2 20C2 29.9411 10.0589 38 20 38ZM20 40C31.0457 40 40 31.0457 40 20C40 8.9543 31.0457 0 20 0C8.9543 0 0 8.9543 0 20C0 31.0457 8.9543 40 20 40Z" fill="#F3DA54"/>
<path fill-rule="evenodd" clip-rule="evenodd" d="M28.7071 14.2929C29.0976 14.6834 29.0976 15.3166 28.7071 15.7071L17.7071 26.7071C17.3166 27.0976 16.6834 27.0976 16.2929 26.7071L11.2929 21.7071C10.9024 21.3166 10.9024 20.6834 11.2929 20.2929C11.6834 19.9024 12.3166 19.9024 12.7071 20.2929L17 24.5858L27.2929 14.2929C27.6834 13.9024 28.3166 13.9024 28.7071 14.2929Z" fill="#F3DA54"/>
</svg>
