<svg width="40" height="40" viewBox="0 0 40 40" fill="none" xmlns="http://www.w3.org/2000/svg">
<path fill-rule="evenodd" clip-rule="evenodd" d="M20 38C29.9411 38 38 29.9411 38 20C38 10.0589 29.9411 2 20 2C10.0589 2 2 10.0589 2 20C2 29.9411 10.0589 38 20 38ZM20 40C31.0457 40 40 31.0457 40 20C40 8.9543 31.0457 0 20 0C8.9543 0 0 8.9543 0 20C0 31.0457 8.9543 40 20 40Z" fill="#222222"/>
<path fill-rule="evenodd" clip-rule="evenodd" d="M21 13C21 12.4477 20.5523 12 20 12C19.4477 12 19 12.4477 19 13V19H13C12.4477 19 12 19.4477 12 20C12 20.5523 12.4477 21 13 21H19V27C19 27.5523 19.4477 28 20 28C20.5523 28 21 27.5523 21 27V21H27C27.5523 21 28 20.5523 28 20C28 19.4477 27.5523 19 27 19H21V13Z" fill="black"/>
</svg>
