<svg width="40" height="40" viewBox="0 0 40 40" fill="none" xmlns="http://www.w3.org/2000/svg">
<path fill-rule="evenodd" clip-rule="evenodd" d="M20 38C29.9411 38 38 29.9411 38 20C38 10.0589 29.9411 2 20 2C10.0589 2 2 10.0589 2 20C2 29.9411 10.0589 38 20 38ZM20 40C31.0457 40 40 31.0457 40 20C40 8.9543 31.0457 0 20 0C8.9543 0 0 8.9543 0 20C0 31.0457 8.9543 40 20 40Z" fill="#F3DA54"/>
<path fill-rule="evenodd" clip-rule="evenodd" d="M26.7071 14.7071C27.0976 14.3166 27.0976 13.6834 26.7071 13.2929C26.3166 12.9024 25.6834 12.9024 25.2929 13.2929L20 18.5858L14.7071 13.2929C14.3166 12.9024 13.6834 12.9024 13.2929 13.2929C12.9024 13.6834 12.9024 14.3166 13.2929 14.7071L18.5858 20L13.2929 25.2929C12.9024 25.6834 12.9024 26.3166 13.2929 26.7071C13.6834 27.0976 14.3166 27.0976 14.7071 26.7071L20 21.4142L25.2929 26.7071C25.6834 27.0976 26.3166 27.0976 26.7071 26.7071C27.0976 26.3166 27.0976 25.6834 26.7071 25.2929L21.4142 20L26.7071 14.7071Z" fill="#F3DA54"/>
</svg>
