<svg width="85" height="85" viewBox="0 0 85 85" fill="none" xmlns="http://www.w3.org/2000/svg">
<path d="M38.9583 14.1667H14.1666C12.288 14.1667 10.4863 14.9129 9.15791 16.2413C7.82953 17.5697 7.08325 19.3714 7.08325 21.25V70.8333C7.08325 72.712 7.82953 74.5136 9.15791 75.842C10.4863 77.1704 12.288 77.9167 14.1666 77.9167H63.7499C65.6285 77.9167 67.4302 77.1704 68.7586 75.842C70.087 74.5136 70.8332 72.712 70.8332 70.8333V46.0417" stroke="black" stroke-width="10" stroke-linecap="round" stroke-linejoin="round"/>
<path d="M65.5207 8.85417C66.9297 7.4452 68.8407 6.65366 70.8332 6.65366C72.8258 6.65366 74.7368 7.4452 76.1457 8.85417C77.5547 10.2631 78.3463 12.1741 78.3463 14.1667C78.3463 16.1592 77.5547 18.0702 76.1457 19.4792L42.4999 53.125L28.3333 56.6667L31.8749 42.5L65.5207 8.85417Z" stroke="black" stroke-width="10" stroke-linecap="round" stroke-linejoin="round"/>
</svg>
